<?xml version="1.0" encoding="utf-8"?>
<!-- Generator: Adobe Illustrator 24.1.3, SVG Export Plug-In . SVG Version: 6.00 Build 0)  -->
<svg version="1.1" id="Layer_1" xmlns="http://www.w3.org/2000/svg" xmlns:xlink="http://www.w3.org/1999/xlink" x="0px" y="0px"
	 viewBox="0 0 12 12" style="enable-background:new 0 0 12 12;" xml:space="preserve">
<style type="text/css">
	.st0{fill:#FFFFFF;}
	.st1{fill:none;stroke:#FFFFFF;stroke-width:0.9;stroke-miterlimit:10;}
</style>
<g>
	<path class="st0" d="M10.9,5.4H6.4V0.9c0-0.2-0.2-0.4-0.4-0.4c-0.2,0-0.4,0.2-0.4,0.4v4.4H1c-0.2,0-0.4,0.2-0.4,0.4
		C0.5,6,0.7,6.2,1,6.2h4.6v4.4c0,0.2,0.2,0.4,0.4,0.4c0.2,0,0.4-0.2,0.4-0.4V6.2h4.6c0.2,0,0.4-0.2,0.4-0.4
		C11.3,5.5,11.1,5.4,10.9,5.4"/>
	<path class="st1" d="M10.9,5.4H6.4V0.9c0-0.2-0.2-0.4-0.4-0.4c-0.2,0-0.4,0.2-0.4,0.4v4.4H1c-0.2,0-0.4,0.2-0.4,0.4
		C0.5,6,0.7,6.2,1,6.2h4.6v4.4c0,0.2,0.2,0.4,0.4,0.4c0.2,0,0.4-0.2,0.4-0.4V6.2h4.6c0.2,0,0.4-0.2,0.4-0.4
		C11.3,5.5,11.1,5.4,10.9,5.4z"/>
</g>
</svg>
